<svg viewBox="0 0 243.57 55" xmlns="http://www.w3.org/2000/svg" xmlns:xlink="http://www.w3.org/1999/xlink" width="243.569824" height="55.000000" fill="none" customFrame="#000000">
	<rect id="company-logo-black" width="243.000000" height="55.000000" x="0.200195" y="0.000000" fill="rgb(255,255,255)" fill-opacity="0" />
	<path id="KONSTRU T" d="M7.7 35.95L10.08 31.47L17.57 51L25.48 51L14.77 23.84L25.48 2L17.78 2L7.7 23.35L7.7 2L0 2L0 51L7.7 51L7.7 35.95ZM36.35 39.73C36.35 41.5033 36.7117 42.7517 37.435 43.475C38.1583 44.1983 39.1267 44.56 40.34 44.56C41.5533 44.56 42.5217 44.1983 43.245 43.475C43.9683 42.7517 44.33 41.5033 44.33 39.73L44.33 13.27C44.33 11.4967 43.9683 10.2483 43.245 9.525C42.5217 8.80167 41.5533 8.44 40.34 8.44C39.1267 8.44 38.1583 8.80167 37.435 9.525C36.7117 10.2483 36.35 11.4967 36.35 13.27L36.35 39.73ZM31.66 4.625C29.6533 6.74835 28.65 9.79332 28.65 13.76L28.65 39.24C28.65 43.2067 29.6533 46.2517 31.66 48.375C33.6667 50.4983 36.56 51.56 40.34 51.56C44.12 51.56 47.0133 50.4983 49.02 48.375C51.0267 46.2517 52.03 43.2067 52.03 39.24L52.03 13.76C52.03 9.79332 51.0267 6.74835 49.02 4.625C47.0133 2.50166 44.12 1.44 40.34 1.44C36.56 1.44 33.6667 2.50166 31.66 4.625ZM64.65 51L64.65 15.51L74.24 51L82.15 51L82.15 2L75.29 2L75.29 31.33L67.38 2L57.72 2L57.72 51L64.65 51ZM90.325 4.625C88.435 6.74835 87.49 9.79332 87.49 13.76C87.49 16.0933 87.8633 18.1233 88.61 19.85C89.3567 21.5767 90.29 23.1167 91.41 24.47C92.53 25.8233 93.7317 27.0717 95.015 28.215C96.2983 29.3583 97.5 30.5017 98.62 31.645C99.74 32.7883 100.673 34.0017 101.42 35.285C102.167 36.5683 102.54 38.05 102.54 39.73C102.54 41.5033 102.178 42.74 101.455 43.44C100.732 44.14 99.7633 44.49 98.55 44.49C97.3367 44.49 96.3683 44.14 95.645 43.44C94.9217 42.74 94.56 41.5033 94.56 39.73L94.56 36.23L87.28 36.23L87.28 39.24C87.28 43.2067 88.2483 46.2517 90.185 48.375C92.1217 50.4983 94.98 51.56 98.76 51.56C102.54 51.56 105.398 50.4983 107.335 48.375C109.272 46.2517 110.24 43.2067 110.24 39.24C110.24 36.9067 109.867 34.8767 109.12 33.15C108.373 31.4233 107.44 29.8833 106.32 28.53C105.2 27.1767 103.998 25.9283 102.715 24.785C101.432 23.6417 100.23 22.4983 99.11 21.355C97.99 20.2117 97.0567 18.9983 96.31 17.715C95.5633 16.4317 95.19 14.95 95.19 13.27C95.19 11.4967 95.5283 10.2483 96.205 9.525C96.8817 8.80167 97.8267 8.44 99.04 8.44C100.253 8.44 101.198 8.80167 101.875 9.525C102.552 10.2483 102.89 11.4967 102.89 13.27L102.89 15.3L110.17 15.3L110.17 13.76C110.17 9.79332 109.225 6.74835 107.335 4.625C105.445 2.50166 102.61 1.44 98.83 1.44C95.05 1.44 92.215 2.50166 90.325 4.625ZM137 2L113.2 2L113.2 9L121.25 9L121.25 51L128.95 51L128.95 9L137 9L137 2ZM156.97 50.09C157.063 50.37 157.157 50.6733 157.25 51L165.09 51C164.717 50.0667 164.483 49.145 164.39 48.235C164.297 47.325 164.25 46.2633 164.25 45.05L164.25 37.49C164.25 34.9233 163.888 32.7417 163.165 30.945C162.442 29.1483 161.1 27.8533 159.14 27.06C162.5 25.4733 164.18 22.16 164.18 17.12L164.18 13.27C164.18 9.48998 163.282 6.66668 161.485 4.8C159.688 2.93333 156.783 2 152.77 2L141.15 2L141.15 51L148.85 51L148.85 31.05L151.51 31.05C153.283 31.05 154.567 31.5167 155.36 32.45C156.153 33.3833 156.55 34.9933 156.55 37.28L156.55 44.98C156.55 45.96 156.562 46.7767 156.585 47.43C156.608 48.0833 156.655 48.62 156.725 49.04C156.795 49.46 156.877 49.81 156.97 50.09ZM148.85 9L148.85 24.05L151.86 24.05C153.307 24.05 154.438 23.6767 155.255 22.93C156.072 22.1833 156.48 20.83 156.48 18.87L156.48 14.04C156.48 12.2667 156.165 10.9833 155.535 10.19C154.905 9.39667 153.913 9 152.56 9L148.85 9ZM177.43 39.8L177.43 2L169.73 2L169.73 39.31C169.73 43.2767 170.698 46.3217 172.635 48.445C174.572 50.5683 177.43 51.63 181.21 51.63C184.99 51.63 187.848 50.5683 189.785 48.445C191.722 46.3217 192.69 43.2767 192.69 39.31L192.69 2L185.41 2L185.41 39.8C185.41 41.5733 185.048 42.81 184.325 43.51C183.602 44.21 182.633 44.56 181.42 44.56C180.207 44.56 179.238 44.21 178.515 43.51C177.792 42.81 177.43 41.5733 177.43 39.8ZM243.57 2L219.77 2L219.77 9L227.82 9L227.82 51L235.52 51L235.52 9L243.57 9L243.57 2Z" fill="rgb(23,24,25)" fill-rule="evenodd" />
	<path id="Triangle" d="M196.348 27.4644L216.348 2.46442L216.348 52.4644L196.348 27.4644Z" fill="rgb(0,164,229)" fill-rule="evenodd" />
	<path id="Triangle" d="M216.348 2.46442L216.348 52.4644L196.348 27.4644L216.348 2.46442Z" fill-rule="evenodd" stroke="rgb(150.96,150.96,150.96)" stroke-opacity="0" stroke-width="0.000000" />
</svg>
